Coordinates
version=1
nRows=16
nColumns=42
inDegrees=yes

Units are S.I. units (second, meters, Newtons, ...)
If the header above contains a line with 'inDegrees', this indicates whether rotational values are in degrees (yes) or radians (no).

endheader
time	pelvis_tilt	pelvis_list	pelvis_rotation	pelvis_tx	pelvis_ty	pelvis_tz	hip_flexion_r	hip_adduction_r	hip_rotation_r	knee_angle_r	knee_adduction_r	knee_angle_r_beta	ankle_angle_r	subtalar_angle_r	mtp_angle_r	hip_flexion_l	hip_adduction_l	hip_rotation_l	knee_angle_l	knee_adduction_l	knee_angle_l_beta	ankle_angle_l	subtalar_angle_l	mtp_angle_l	lumbar_extension	lumbar_bending	lumbar_rotation	arm_flex_r	arm_add_r	arm_rot_r	elbow_flex_r	pro_sup_r	wrist_flex_r	wrist_dev_r	arm_flex_l	arm_add_l	arm_rot_l	elbow_flex_l	pro_sup_l	wrist_flex_l	wrist_dev_l
      1.00000000	      4.45493652	     -1.29118293	     -0.66319825	     -0.62508771	      0.92795668	     -0.09225177	     15.07865007	     -6.09283182	    -22.32325037	     37.01680624	     -0.77269690	      0.64606515	     13.99091764	      9.75486605	     -9.62872836	      1.55588992	     -3.73659296	    -18.30671759	     32.30567682	     -2.76579736	      0.56384043	     22.31196138	      4.02278074	     -9.62872836	    -16.94145298	      3.10731815	     -3.70149452	      8.82126198	    -12.67252695	      5.75728804	     40.58666432	     90.00000001	      0.00000000	      0.00000000	    -14.63274109	     -8.29835006	     -4.05090038	     55.30769855	     90.00000001	      0.00000000	      0.00000000
      1.01000000	      4.30717389	     -1.24371243	     -0.74649970	     -0.62318678	      0.92775189	     -0.09100840	     15.14280931	     -6.05711522	    -22.31949663	     37.04561843	     -0.78092053	      0.64656802	     14.02146952	      9.75449405	     -9.62618601	      1.55602066	     -3.75595226	    -18.33457921	     32.27428007	     -2.76759602	      0.56329245	     22.30942191	      4.02239983	     -9.62618601	    -16.92748599	      3.16593730	     -3.79389330	      9.04196422	    -12.60559725	      5.75984098	     40.71085412	     90.00000001	      0.00000000	      0.00000000	    -14.54031087	     -8.28596165	     -4.01121036	     55.34249546	     90.00000001	      0.00000000	      0.00000000
      1.02000000	      4.15350765	     -1.21810427	     -0.81126268	     -0.62127638	      0.92752588	     -0.08976077	     15.23615156	     -5.96431087	    -22.25747156	     37.11982910	     -0.82988032	      0.64786324	     14.09618445	      9.75178195	     -9.62264509	      1.56230396	     -3.80188069	    -18.37367028	     32.22552486	     -2.78946670	      0.56244151	     22.30077519	      4.02187809	     -9.62264509	    -16.90396224	      3.26150464	     -3.96040593	      9.28950690	    -12.51954354	      5.77222033	     40.88732807	     90.00000001	      0.00000000	      0.00000000	    -14.50975814	     -8.29808710	     -3.94543832	     55.37183965	     90.00000001	      0.00000000	      0.00000000
      1.03000000	      3.99006125	     -1.20170281	     -0.85804674	     -0.61930586	      0.92728457	     -0.08851972	     15.34004881	     -5.84622079	    -22.14078647	     37.20314394	     -0.89367579	      0.64931735	     14.23350295	      9.72527655	     -9.61777758	      1.58467650	     -3.86151246	    -18.41309380	     32.19424729	     -2.83511845	      0.56189562	     22.27930649	      4.03140173	     -9.61777758	    -16.85812737	      3.37532829	     -4.13929996	      9.49777358	    -12.43993494	      5.81093956	     41.08749876	     90.00000001	      0.00000000	      0.00000000	    -14.51619638	     -8.33289609	     -3.85452958	     55.42742018	     90.00000001	      0.00000000	      0.00000000
      1.04000000	      3.83114828	     -1.16573273	     -0.90304635	     -0.61745812	      0.92712801	     -0.08731453	     15.42004117	     -5.76458289	    -22.04169790	     37.23957281	     -0.91350809	      0.64995316	     14.34798299	      9.69022451	     -9.61430079	      1.62572382	     -3.89763167	    -18.44628052	     32.18196120	     -2.86774935	      0.56168118	     22.25696686	      4.04521923	     -9.61430079	    -16.84378473	      3.46366396	     -4.28725598	      9.69213232	    -12.37484766	      5.85425560	     41.26783096	     90.00000001	      0.00000000	      0.00000000	    -14.45330813	     -8.34829894	     -3.77634018	     55.49803057	     90.00000001	      0.00000000	      0.00000000
      1.05000000	      3.52999799	     -1.21063825	     -0.95478389	     -0.61563017	      0.92662619	     -0.08599035	     15.64190044	     -5.49826779	    -21.49734485	     37.27277155	     -0.78748791	      0.65053258	     14.98398002	      9.20001825	     -9.58785993	      1.93875373	     -4.07430214	    -18.63411899	     32.40181087	     -3.00714625	      0.56551828	     22.14122281	      4.20613570	     -9.58785993	    -16.65774564	      3.64690741	     -4.40980757	      9.71827330	    -12.48603462	      6.28527177	     41.83548066	     90.00000001	      0.00000000	      0.00000000	    -14.57359877	     -8.50833534	     -3.37512345	     55.85799476	     90.00000001	      0.00000000	      0.00000000
      1.06000000	      3.31498998	     -1.22936166	     -1.05656146	     -0.61390827	      0.92638571	     -0.08467746	     15.76927727	     -5.28243324	    -20.77784384	     37.26857232	     -0.51358749	      0.65045929	     14.81316527	      8.12382402	     -9.52771262	      2.12947210	     -4.22743441	    -18.96780976	     32.57490069	     -3.15734294	      0.56853927	     22.23463248	      4.59117536	     -9.52771262	    -16.59140478	      3.80416611	     -4.46588332	      9.76207554	    -12.69063332	      7.04509098	     42.42551159	     90.00000001	      0.00000000	      0.00000000	    -14.51289147	     -8.61069944	     -3.05300560	     55.86530079	     90.00000001	      0.00000000	      0.00000000
      1.07000000	      3.19390528	     -1.16439505	     -1.09157025	     -0.61204875	      0.92639376	     -0.08351804	     15.77865629	     -5.24300836	    -20.70123526	     37.26726982	     -0.52709054	      0.65043656	     14.83595644	      8.09741860	     -9.52476976	      2.14703609	     -4.22695624	    -18.96949374	     32.58147408	     -3.18878562	      0.56865400	     22.20860537	      4.60959867	     -9.52476976	    -16.61066455	      3.88054959	     -4.58869786	      9.94313426	    -12.62684878	      7.05449885	     42.54749106	     90.00000001	      0.00000000	      0.00000000	    -14.43461134	     -8.60908942	     -3.03837463	     55.89156358	     90.00000001	      0.00000000	      0.00000000
      1.08000000	      3.07666204	     -1.11487363	     -1.11621865	     -0.61029726	      0.92646125	     -0.08236510	     15.77717015	     -5.16941359	    -20.55138063	     37.23580712	     -0.51771136	      0.64988743	     14.90475939	      8.04608048	     -9.52089545	      2.20392686	     -4.23824998	    -18.95954536	     32.65006099	     -3.26584546	      0.56985107	     22.12741811	      4.63833718	     -9.52089545	    -16.65384251	      3.98180568	     -4.77196685	     10.13623646	    -12.55737165	      7.08645412	     42.74203017	     90.00000001	      0.00000000	      0.00000000	    -14.39604419	     -8.62683778	     -3.01755190	     55.92624075	     90.00000001	      0.00000000	      0.00000000
      1.09000000	      2.95419896	     -1.10470965	     -1.07065333	     -0.60852815	      0.92649757	     -0.08125780	     15.69811321	     -5.02034409	    -20.22471328	     37.08769976	     -0.39867824	      0.64730247	     15.10957572	      7.85563372	     -9.51128339	      2.39455644	     -4.31709631	    -18.95451773	     32.96274269	     -3.43285764	      0.57530839	     21.85952170	      4.69267075	     -9.51128339	    -16.67584816	      4.13970822	     -5.00934495	     10.26776765	    -12.54054215	      7.22804242	     43.11186013	     90.00000001	      0.00000000	      0.00000000	    -14.42495893	     -8.66892741	     -2.99127576	     56.05400810	     90.00000001	      0.00000000	      0.00000000
      1.10000000	      2.82457442	     -1.02780469	     -1.16202879	     -0.60669045	      0.92661129	     -0.08004147	     15.69081441	     -5.02461872	    -20.20860396	     37.04103631	     -0.35832960	      0.64648804	     15.14568813	      7.80380054	     -9.50912253	      2.45790202	     -4.31496885	    -18.95830578	     33.04700060	     -3.43981646	      0.57677897	     21.80333877	      4.70109614	     -9.50912253	    -16.68247007	      4.20869273	     -5.01442853	     10.38091721	    -12.52052825	      7.27451552	     43.22220492	     90.00000001	      0.00000000	      0.00000000	    -14.33814428	     -8.66546149	     -2.98180051	     56.11709773	     90.00000001	      0.00000000	      0.00000000
      1.11000000	      2.57059750	     -1.18193079	     -1.11316505	     -0.60512770	      0.92643680	     -0.07890177	     15.68734166	     -4.69221290	    -19.78700576	     36.75433415	     -0.08237467	      0.64148415	     15.35914129	      7.22295853	     -9.48284923	      3.04214373	     -4.72044638	    -19.11339776	     33.87339868	     -3.59960784	      0.59120234	     21.27285457	      4.60251741	     -9.48284923	    -16.59550624	      4.56103743	     -5.13308854	     10.29953265	    -12.78144214	      7.90726200	     43.96889193	     90.00000001	      0.00000000	      0.00000000	    -14.39611295	     -8.68154657	     -2.92588456	     56.43124287	     90.00000001	      0.00000000	      0.00000000
      1.12000000	      2.47300313	     -1.06585134	     -1.29238239	     -0.60339986	      0.92667279	     -0.07755199	     15.66633166	     -4.71771277	    -19.78465053	     36.70078030	     -0.09524549	      0.64054945	     15.35959323	      7.18411544	     -9.48045513	      3.11974358	     -4.65827333	    -19.05194561	     34.04151382	     -3.61957914	      0.59413650	     21.21580291	      4.61699389	     -9.48045513	    -16.65773018	      4.57157330	     -5.08846392	     10.47229383	    -12.76277483	      7.95905267	     44.08508989	     90.00000001	      0.00000000	      0.00000000	    -14.33463410	     -8.69924260	     -2.92575549	     56.45051420	     90.00000001	      0.00000000	      0.00000000
      1.13000000	      2.20456312	     -1.15179671	     -1.27658897	     -0.60197813	      0.92651532	     -0.07639351	     15.74134766	     -4.45363425	    -19.62885016	     36.45972116	     -0.05703244	      0.63634218	     15.35307070	      6.85632155	     -9.44571048	      3.84171794	     -5.00249673	    -19.01450968	     35.11659522	     -3.70410117	      0.61290021	     20.63406582	      4.22788747	     -9.44571048	    -16.55703579	      4.84593337	     -5.15230311	     10.40454328	    -13.05849029	      8.73517258	     44.74262463	     90.00000001	      0.00000000	      0.00000000	    -14.31797152	     -8.68424929	     -2.90236300	     56.68855481	     90.00000001	      0.00000000	      0.00000000
      1.14000000	      2.07456149	     -1.08797611	     -1.33875303	     -0.60042573	      0.92668157	     -0.07522951	     15.68496597	     -4.46115320	    -19.66387768	     36.30894570	      0.01690208	      0.63371065	     15.38097098	      6.85490019	     -9.42040391	      4.29442602	     -5.10476026	    -18.85999570	     35.93027878	     -3.72983819	      0.62710167	     20.14094387	      3.92253301	     -9.42040391	    -16.60209641	      4.94848823	     -5.16971694	     10.45549491	    -13.21173993	      9.08251269	     45.05588899	     90.00000001	      0.00000000	      0.00000000	    -14.29897485	     -8.72731944	     -2.93195780	     56.82991636	     90.00000001	      0.00000000	      0.00000000
      1.15000000	      2.01851509	     -0.93933543	     -1.45181769	     -0.59874497	      0.92697880	     -0.07396594	     15.55565174	     -4.54882880	    -19.73964116	     36.17621552	      0.01635108	      0.63139407	     15.42705089	      6.98160485	     -9.40730412	      4.67132753	     -5.12888138	    -18.70428853	     36.79598435	     -3.72052775	      0.64221108	     19.65258414	      3.71667668	     -9.40730412	    -16.69831212	      4.92482855	     -5.15063435	     10.52748537	    -13.27063058	      9.25986275	     45.28103442	     90.00000001	      0.00000000	      0.00000000	    -14.24821797	     -8.76745888	     -2.95985416	     56.95348391	     90.00000001	      0.00000000	      0.00000000
